HIERARCHY
ROOT pelvis
{
  OFFSET 0 100 0
  CHANNELS 6 Xposition Yposition Zposition Zrotation Xrotation Yrotation
  JOINT pelvis_right_femur
  {
    OFFSET -10.78128 -3.44521 -0.5502486
    CHANNELS 3 Zrotation Xrotation Yrotation
    JOINT right_femur_tibia
    {
      OFFSET -0.8047443 -44.0398 -0.1307829
      CHANNELS 3 Zrotation Xrotation Yrotation
      JOINT right_tibia_foot
      {
        OFFSET 3.006224 -47.83518 -5
        CHANNELS 3 Zrotation Xrotation Yrotation
        End Site
        {
          OFFSET 0 -5 15
        }
      }
    }
  }
  JOINT pelvis_left_femur
  {
    OFFSET 10.78128 -3.44521 -0.5502486
    CHANNELS 3 Zrotation Xrotation Yrotation
    JOINT left_femur_tibia
    {
      OFFSET 0.8047443 -44.0398 -0.1307829
      CHANNELS 3 Zrotation Xrotation Yrotation
      JOINT left_tibia_foot
      {
        OFFSET -4.370144 -48.10324 -4.275266
        CHANNELS 3 Zrotation Xrotation Yrotation
        End Site
        {
          OFFSET 0 -5 15
        }
      }
    }
  }
  JOINT pelvis_spine1
  {
    OFFSET 0 6.468898 -3.129235
    CHANNELS 3 Zrotation Xrotation Yrotation
    JOINT spine1
    {
      OFFSET 0 23.15396 4.99043
      CHANNELS 3 Zrotation Xrotation Yrotation
      JOINT spine2
      {
        OFFSET 0 20.79997 -5.064912
        CHANNELS 3 Zrotation Xrotation Yrotation
        JOINT neck
        {
          OFFSET 0 14.38658 9.616178
          CHANNELS 3 Zrotation Xrotation Yrotation
          End Site
          {
            OFFSET 0 20 0
          }
        }
      }
      JOINT right_manubrium
      {
        OFFSET -5.722621 16.35077 3.967754
        CHANNELS 3 Zrotation Xrotation Yrotation
        JOINT right_clavicle
        {
          OFFSET -13.16364 1.694482 -4.693211
          CHANNELS 3 Zrotation Xrotation Yrotation
          JOINT right_humerus
          {
            OFFSET -28.5034 -0.3100689 -2.792744
            CHANNELS 3 Zrotation Xrotation Yrotation
            JOINT right_radius
            {
              OFFSET -25.15693 0.02248979 -1.271978
              CHANNELS 3 Zrotation Xrotation Yrotation
              End Site
              {
                OFFSET -15 0 0
              }
            }
          }
        }
      }
      JOINT left_manubrium
      {
        OFFSET 5.722621 16.35077 3.967754
        CHANNELS 3 Zrotation Xrotation Yrotation
        JOINT left_clavicle
        {
          OFFSET 13.16364 1.694482 -4.693211
          CHANNELS 3 Zrotation Xrotation Yrotation
          JOINT left_humerus
          {
            OFFSET 29.39168 -1.063119 -2.237045
            CHANNELS 3 Zrotation Xrotation Yrotation
            JOINT left_radius
            {
              OFFSET 24.59957 -0.9528479 0.9047498
              CHANNELS 3 Zrotation Xrotation Yrotation
              End Site
              {
                OFFSET 15 -0 -0
              }
            }
          }
        }
      }
    }
  }
}
MOTION
Frames: 17
Frame Time: 0.0416666666667
0 103.5113 0 2.091408 -0.2059701 0.2981007 3.353077 -16.4795 12.16234 -0 40.56668 -0 -4.838909 -16.74835 -3.463241 -9.008647 7.361904 -24.0895 -0 4.749761 -0 19.52017 -10.35755 31.85559 -4.446018 -3.455055 6.383923 2.29966 10.58323 -6.889715 1.871103 21.80795 6.459459 2.904221 -26.06647 10.06967 6.117709 -21.37076 11.98247 86.0083 38.63903 -17.39504 -0 0 15.41943 -3.927298 6.157743 4.488289 4.760221 -18.33977 -2.544029 -91.09894 21.76989 20.91829 0 0 -17.94003 17.04516 11.37725 -3.019058
0.4010445 103.109 1.409396 1.878904 0.04268143 0.5663452 3.828324 -18.10769 11.94436 -0 39.20613 -0 -4.79545 -15.92828 -3.308383 -8.822791 8.10406 -23.87271 -0 4.576928 -0 19.32556 -10.70401 31.69251 -4.281775 -3.250944 6.191302 2.361142 10.66107 -6.943408 1.892879 21.7255 6.51451 2.940725 -26.06042 10.12018 6.046526 -21.29894 11.95998 86.33535 38.83462 -17.79301 -0 0 14.97166 -3.965547 6.29077 4.600007 4.76925 -18.51277 -2.800483 -90.74863 22.16472 20.53466 0 0 -19.37113 16.80199 11.23605 -2.59102
0.5662266 102.9518 5.55515 -0.4454583 1.48702 0.464616 6.855639 -26.66495 9.202971 -0 24.60065 -0 -6.192231 -9.568299 -2.929898 -6.535942 16.57416 -18.05829 -0 14.34188 -0 8.036652 -13.98521 24.32971 -1.113843 -3.228012 4.845701 2.259533 10.6179 -8.710019 1.345006 21.10567 6.98043 2.546315 -25.61052 10.17351 3.637374 -20.24928 10.00326 91.8163 35.84211 -25.20894 -0 0 10.23104 -6.97392 9.318337 3.886128 6.036667 -22.35485 -3.27982 -87.85336 26.28747 17.12542 0 0 -31.0733 12.16179 11.64486 3.213504
0.7402582 102.7782 9.204455 -0.3089494 1.148247 0.4130796 6.400194 -24.78604 9.912205 -0 28.34196 -0 -6.008391 -11.12208 -3.334806 -6.618152 15.64874 -19.49063 -0 13.01229 -0 7.676637 -14.06058 25.16959 -1.282763 -3.285169 4.985466 2.069738 10.27682 -8.39604 1.440283 21.45043 7.136489 2.605275 -25.65466 10.45996 3.992297 -20.42006 10.04686 91.37287 36.20939 -24.67982 -0 0 10.91935 -6.552244 9.307496 3.719344 5.690852 -21.76236 -3.127898 -89.3521 28.4315 18.75074 0 0 -29.75736 10.33379 12.7722 5.748029
0.9932041 102.6823 12.07274 0.1157323 1.065785 0.4865009 5.919373 -22.96187 10.88826 -0 32.81111 -0 -5.530869 -12.61594 -3.270357 -7.154597 13.36379 -21.44133 -0 10.61753 -0 9.927068 -13.66223 27.15178 -1.927362 -3.231645 5.381474 1.990582 10.24974 -7.855191 1.586207 21.5603 7.248137 2.898916 -25.85477 10.65146 4.897775 -20.72965 10.52689 90.02848 37.73425 -23.02863 -0 0 12.38552 -5.457686 8.789046 3.62731 5.379204 -20.73512 -2.980614 -90.98905 28.58304 20.70929 0 0 -26.987 10.57403 13.18435 5.640836
1.24321 102.6016 14.94785 0.06977894 1.075583 0.5711666 5.971081 -23.07226 10.90314 -0 32.80304 -0 -5.552673 -12.58655 -3.284492 -7.114061 13.44038 -21.46941 -0 10.69536 -0 9.699522 -13.74518 27.08992 -1.882613 -3.196375 5.351453 1.972573 10.20848 -7.842151 1.597436 21.58142 7.278292 2.913853 -25.83784 10.68808 4.895754 -20.69098 10.50023 90.08355 37.76373 -23.09946 -0 0 12.34418 -5.452168 8.84652 3.591669 5.370153 -20.73465 -2.989501 -91.0812 28.88785 20.77957 0 0 -27.09672 10.30257 13.2634 6.003453
1.468241 102.5368 18.00093 -0.08224342 1.041514 0.6296838 6.073968 -23.34489 10.71087 -0 32.03972 -0 -5.700916 -12.36002 -3.388875 -6.92026 14.08793 -21.1091 -0 11.43252 -0 8.591307 -13.96824 26.49199 -1.652526 -3.202581 5.227102 1.932868 10.10802 -7.94934 1.569073 21.63258 7.309993 2.853491 -25.74247 10.7065 4.669196 -20.57325 10.31477 90.50427 37.36984 -23.63898 -0 0 11.9603 -5.738328 9.090036 3.529355 5.409494 -20.97095 -3.012086 -90.95876 29.5598 20.55188 0 0 -27.8562 9.564475 13.41682 6.911063
1.691611 102.4934 21.00999 -0.0822258 0.9467316 0.6903026 5.984226 -23.008 10.75358 -0 32.50837 -0 -5.706303 -12.58894 -3.482429 -6.903832 14.06683 -21.25567 -0 11.44124 -0 8.223634 -14.03114 26.46409 -1.632199 -3.215187 5.224007 1.881948 10.01947 -7.914164 1.573227 21.71754 7.346408 2.85257 -25.70152 10.75 4.67346 -20.56414 10.27581 90.52141 37.31498 -23.6681 -0 0 11.98705 -5.759508 9.148505 3.480715 5.361689 -20.92836 -2.99763 -91.22596 30.08655 20.79857 0 0 -27.78121 9.030556 13.64681 7.591576
1.921418 102.4696 23.93742 -0.04451456 0.8765603 0.7615567 5.880864 -22.64368 10.83664 -0 33.10179 -0 -5.672398 -12.83952 -3.532802 -6.940063 13.88448 -21.46906 -0 11.27977 -0 8.177288 -14.03098 26.58439 -1.67086 -3.227467 5.254963 1.847209 9.970162 -7.858236 1.581733 21.77591 7.371563 2.868242 -25.69044 10.78217 4.735943 -20.58711 10.28811 90.43199 37.37042 -23.5629 -0 0 12.10909 -5.707055 9.141415 3.451217 5.313395 -20.83586 -2.977855 -91.49465 30.3665 21.07868 0 0 -27.52552 8.756469 13.80825 7.947026
2.1527 102.4563 26.85209 -0.03912509 0.8289446 0.8335777 5.829566 -22.47507 10.83717 -0 33.26924 -0 -5.674631 -12.93703 -3.574431 -6.935127 13.88744 -21.50608 -0 11.29701 -0 8.021102 -14.04963 26.55603 -1.664498 -3.243259 5.2547 1.828669 9.937199 -7.851759 1.57795 21.81099 7.380896 2.860126 -25.67078 10.79103 4.727213 -20.58715 10.26954 90.44373 37.3163 -23.58209 -0 0 12.11214 -5.735583 9.163382 3.438697 5.296258 -20.82895 -2.970901 -91.58188 30.54616 21.15659 0 0 -27.4983 8.554943 13.89501 8.19344
2.384415 102.4497 29.77111 -0.04010623 0.7851552 0.9029862 5.788166 -22.34931 10.81502 -0 33.33037 -0 -5.685114 -12.99906 -3.614708 -6.920586 13.93616 -21.4973 -0 11.35379 -0 7.841648 -14.07168 26.49068 -1.64862 -3.261517 5.246807 1.81516 9.90891 -7.858504 1.570422 21.8405 7.384922 2.844485 -25.6492 10.79263 4.699623 -20.58267 10.24379 90.47922 37.2298 -23.63038 -0 0 12.08554 -5.786901 9.190772 3.432983 5.286571 -20.84368 -2.966852 -91.61988 30.69298 21.18016 0 0 -27.52457 8.376324 13.96217 8.404756
2.618766 102.4491 32.68086 -0.03065639 0.7461795 0.9717586 5.740935 -22.20441 10.80951 -0 33.45175 -0 -5.684027 -13.07744 -3.645737 -6.920813 13.93359 -21.51685 -0 11.35939 -0 7.744276 -14.07797 26.47054 -1.649193 -3.279361 5.249066 1.804449 9.888471 -7.856895 1.564991 21.8654 7.387459 2.834052 -25.63618 10.79406 4.690688 -20.58739 10.23206 90.48284 37.17701 -23.6385 -0 0 12.08956 -5.814773 9.201408 3.430285 5.274481 -20.84052 -2.959861 -91.67156 30.78986 21.22669 0 0 -27.49079 8.25381 14.02056 8.547877
2.856653 102.4526 35.58089 -0.01948161 0.7168303 1.040303 5.700798 -22.0834 10.80694 -0 33.5544 -0 -5.679753 -13.14218 -3.667079 -6.925675 13.9186 -21.5339 -0 11.35136 -0 7.696059 -14.07589 26.46528 -1.654934 -3.295501 5.254215 1.798214 9.876669 -7.855437 1.560256 21.88238 7.387203 2.825404 -25.6293 10.79312 4.686833 -20.59509 10.22694 90.47707 37.13929 -23.63398 -0 0 12.09991 -5.83334 9.203798 3.431276 5.265424 -20.83552 -2.952826 -91.70778 30.83598 21.26207 0 0 -27.44683 8.186355 14.06051 8.622998
3.09792 102.4584 38.4781 -0.01194402 0.6956729 1.107807 5.671855 -22.0007 10.79834 -0 33.60233 -0 -5.678091 -13.18238 -3.682495 -6.927691 13.91763 -21.53267 -0 11.35386 -0 7.659707 -14.07319 26.4525 -1.657825 -3.309767 5.256893 1.795728 9.8704 -7.858706 1.5552 21.89292 7.384449 2.815858 -25.62474 10.78944 4.678498 -20.60115 10.22184 90.47769 37.09992 -23.63657 -0 0 12.10065 -5.854315 9.205601 3.435307 5.261015 -20.83809 -2.947525 -91.71845 30.85132 21.27158 0 0 -27.42411 8.150958 14.08404 8.657756
3.342606 102.4653 41.37492 -0.006091823 0.6800391 1.174056 5.649735 -21.94007 10.78872 -0 33.62599 -0 -5.67708 -13.2097 -3.693641 -6.929089 13.91997 -21.52508 -0 11.35787 -0 7.635785 -14.06966 26.43986 -1.660116 -3.322154 5.258872 1.795235 9.867478 -7.863375 1.550502 21.89954 7.380714 2.80691 -25.6221 10.78486 4.669851 -20.6066 10.21792 90.47929 37.06457 -23.63988 -0 0 12.09891 -5.873481 9.206108 3.440521 5.258907 -20.84286 -2.943133 -91.71792 30.8491 21.27038 0 0 -27.40895 8.135534 14.09829 8.668273
3.590905 102.4726 44.27123 -0.0006609088 0.6688894 1.239267 5.632232 -21.89305 10.78123 -0 33.6423 -0 -5.675411 -13.23025 -3.700947 -6.931484 13.91865 -21.51792 -0 11.35781 -0 7.627361 -14.06448 26.43272 -1.663379 -3.332615 5.26142 1.795903 9.867137 -7.867506 1.546591 21.90328 7.376736 2.799556 -25.62146 10.78028 4.663612 -20.61222 10.21617 90.47827 37.03749 -23.63952 -0 0 12.0992 -5.887794 9.204474 3.445933 5.257909 -20.8466 -2.939165 -91.71372 30.83421 21.26674 0 0 -27.39285 8.136224 14.1063 8.660069
3.842872 102.4798 47.16752 0.003824845 0.6615603 1.303567 5.619294 -21.85958 10.77491 -0 33.64913 -0 -5.673738 -13.24377 -3.705237 -6.934017 13.91663 -21.50997 -0 11.35651 -0 7.628723 -14.05865 26.42841 -1.666668 -3.341215 5.263931 1.797418 9.86867 -7.87147 1.543341 21.90467 7.372694 2.793488 -25.62212 10.77578 4.65869 -20.61744 10.21568 90.47651 37.01651 -23.63789 -0 0 12.09977 -5.898734 9.201768 3.451289 5.257976 -20.8502 -2.935838 -91.70572 30.81105 21.25994 0 0 -27.37922 8.148149 14.1091 8.639112
